<?xml version="1.0" encoding="utf-8"?>
<!-- Generator: Adobe Illustrator 24.1.2, SVG Export Plug-In . SVG Version: 6.00 Build 0)  -->
<svg version="1.1" id="Laag_1" xmlns="http://www.w3.org/2000/svg" xmlns:xlink="http://www.w3.org/1999/xlink" x="0px" y="0px"
	 viewBox="0 0 140 84" style="enable-background:new 0 0 140 84;" xml:space="preserve">
<style type="text/css">
	.st0{fill:#FFFFFF;}
</style>
<path class="st0" d="M45,60.6c3,0,4.6-1.9,4.6-4.7V41.6H56v14.5c-0.1,6.4-5.2,8.9-11,8.9s-10.9-2.5-11-8.9V41.6h6.4v14.3
	C40.4,58.7,42,60.6,45,60.6z M17.6,64.6H24V46.1h7.1v-4.5H10.4v4.5h7.1V64.6z M32.8,30.5c-1.6,0.5-3.1,0.1-3.1-1.9
	c0-3.1,7.4-5.8,8.5-8.6c0.2-0.7,0.2-1.2,0-1.2c-0.2,0,0,0.4-0.6,0.8c-3,3-8.2,3-12.2,4.8c-2.5,1.2-10.2,4.7-8.5,12.7
	c0.1,0.4,0.4,1.7,0.5,1.7c0.4-0.1,0.4-0.8,0.4-1.8c0-4.7,5.6-6,7.4-9.2c0.2-0.4,0.6-0.8,0.7-0.6v0.6c-0.6,2.5-3.3,4.2-2.5,6
	c1,2.4,3.9,0.6,4.7-1c0.2-0.4,0.4-0.7,0.5-0.6c0.1,0,0.1,0.5,0,1c-0.5,2.8-1.1,4.2-3.1,5.8c-0.6,0.5-1.7,0.6-1.6,1
	c0,0.1,0.5,0.1,0.8,0c5.3-0.4,9.8-6.6,11-10.8c0.1-0.2,0.1-0.6,0-0.7c-0.1-0.1-0.4,0.1-0.6,0.4C34.5,29.7,33.6,30.3,32.8,30.5
	L32.8,30.5z M87.2,55c0-2.5,1.6-4.7,4-4.7c2.9,0,4.1,2.1,4.1,4.7H87.2z M98.4,57.2v-1.5c0-4.5-2.5-7.5-7-7.5c-5.1,0-7.4,3.9-7.4,8.6
	s2.1,8.3,7.1,8.3c3.9,0,6.6-1.8,7.1-5.4H95C94.6,62,93.4,63,91.1,63C88,63,87,60.2,87,57.3L98.4,57.2L98.4,57.2z M102.1,41.6h3v23
	h-3V41.6z M114.6,64.6V50.7h3.7v-2.1h-3.7v-2.5c0-1.8,0.8-2.2,2.7-2.2c0.5,0,1,0.1,1.6,0.1v-2.5c-0.7-0.1-1.5-0.4-2.2-0.4
	c-2.9,0-5,1.5-5,4.5v3h-3.1v2.1h3.1v13.9H114.6z M120,48.6v2.1h2.8V61c0,2.2,0,4.1,4.5,4.1c0.7,0,1.3-0.1,2.1-0.2v-2.3
	c-0.5,0.1-1.1,0.2-1.6,0.2c-1.1,0-1.9-0.6-1.9-1.7V50.8h3.7v-2.1h-3.7v-4.4l-3,0.8v3.4H120z M62.4,64.6h7.9
	c9.8,0,10.9-8.3,10.9-11.5c0-3.1-1.1-11.5-10.9-11.5h-7.9V64.6z M65.5,44.4h4.7c5.3,0,7.5,4,7.5,8.7s-2.2,8.7-7.5,8.7h-4.7V44.4
	L65.5,44.4z"/>
</svg>
