<svg id="Layer_1" xmlns="http://www.w3.org/2000/svg" width="285.6" height="356.2" viewBox="0 0 285.6 356.2"><style>.st0{fill:#fff}</style><path class="st0" d="M279.2 39.3h-21.1c-1.9 0-5.1-.5-7-1.2L148.2 1.4c-4.3-1.4-5-1.4-5.4-1.4-.7 0-2.5.5-5.4 1.4L34.6 38.2c-1.9.6-5.1 1.2-7 1.2H6.5c-3.6 0-6.5 2.9-6.5 6.5V260c0 3.1 2 6.7 4.5 8.3l132.7 85.4c4.1 2.6 4.9 2.6 5.5 2.6.6 0 1.4 0 5.6-2.6l132.8-85.4c2.6-1.6 4.6-5.2 4.6-8.3V45.8c0-3.6-2.9-6.5-6.5-6.5zm1.5 220.7c0 1.4-1.1 3.4-2.3 4.1l-132.8 85.4c-1.4.9-2.4 1.4-2.9 1.7-.5-.3-1.4-.8-2.8-1.7L7.2 264.1c-1.1-.7-2.2-2.7-2.2-4.1V45.9c0-.8.7-1.5 1.5-1.5h21.1c2.4 0 6.2-.6 8.6-1.4L139 6.2c1.8-.6 3.2-1 3.8-1.1.5.1 1.6.4 3.7 1.1l102.9 36.7c2.4.8 6.2 1.4 8.6 1.4h21.1c.8 0 1.5.7 1.5 1.5V260z"/><path class="st0" d="M183.5 271.3c1.2 1.2 3 1.2 4.2 0l20.5-20.5c.6-.6.9-1.3.9-2.1s-.3-1.5-.9-2.1l-11.4-11.4 1.3-1.3c1.2-1.2 1.2-3 0-4.2L187.4 219c-1.2-1.2-3-1.2-4.2 0l-41.1 41.1L101 219c-1.1-1.1-3.1-1.1-4.2 0l-10.7 10.7c-1.2 1.2-1.2 3 0 4.2l1.3 1.3L76 246.6c-1.2 1.2-1.2 3 0 4.2l20.5 20.5c1.2 1.2 3 1.2 4.2 0l10.1-10.1 15.7 15.7-3.4 3.4-3.8-3.8c-.7-.7-2.1-1.3-3.1-1.3H94.9c-1.6 0-3 1.4-3 3v33.4c0 1.3.7 2.5 1.9 3.2h.1L96 316c.9.5 2.1.8 2.9.8H136c1.6 0 3-1.4 3-3V298c0-1.1-.5-2.4-1.2-3.1l-.8-.9 5-5 5 5-.9 1c-.7.9-1.1 2.1-1.1 3v15.9c0 1.6 1.4 3 3 3h37.2c1 0 2.1-.3 2.9-.8l2.3-1.3c1.1-.6 1.9-2 1.9-3.2v-33.4c0-1.6-1.4-3-3-3H168c-1.1 0-2.4.5-3.1 1.3l-3.8 3.8-3.4-3.4 15.7-15.7 10.1 10.1zm-29.3 3.5c-.6.6-.9 1.3-.9 2.1s.3 1.5.9 2.1l4.8 4.8c1.1 1.1 3.1 1.1 4.2 0l4.5-4.5c.1-.1.3-.1.3-.1h20.3v32.2l-2.2 1.3c-.2.1-.6.2-.9.2H149v-14.8c0-.1.1-.4.2-.6l.9-1.1c.4-.4 1.2-1.4 1.2-2.4 0-1.1-.9-2.1-1.3-2.5l-5.3-5.3c-.6-.6-1.7-1.3-2.8-1.3s-2.2.7-2.8 1.3l-5.3 5.3c-.4.4-1.3 1.4-1.3 2.5 0 1 .8 2 1.2 2.4l.9 1.1s0 .1.1.1c.1.1.1.3.1.4v14.8H98.9c-.2 0-.7-.1-.9-.3l-2.1-1.1v-32.2h20.2c.1 0 .3.1.3.1l4.5 4.5c1.2 1.2 3 1.2 4.2 0l4.8-4.8c.6-.6.9-1.3.9-2.1s-.3-1.5-.9-2.1l-17.1-17.1c-1.2-1.2-3-1.2-4.2 0l-10.1 10.1-19.1-19.1 11.4-11.4c1.2-1.2 1.2-3 0-4.2l-1.3-1.3 9.3-9.3 41 41c.5.5 1 .8 1 .9.3.3.8.4 1.2.4 1 0 1.9-.8 2.3-1.4l40.9-40.9 9.3 9.3-1.3 1.3c-1.2 1.2-1.2 3 0 4.2l11.4 11.4-19.1 19.1-10.1-10.1c-1.2-1.2-3-1.2-4.2 0l-17 17.1z"/><path class="st0" d="M201.1 247l-13-13 1.7-1.7-4.6-4.6-43.2 43.2-43-43.2-4.6 4.6 1.8 1.8-13.1 13.1c-.5.5-.8 1.2-.8 1.9s.3 1.4.8 1.9l3.8 3.8c1 1.1 2.8 1 3.9 0l2.2-2.2c1.1-1.1 1.1-2.8 0-3.9l-1-1 2.2-2.2 1 1c1 1.1 2.8 1.1 3.9 0l.9-.9 1.5 1.5-.9.9c-1.1 1.1-1.1 2.8 0 3.9l1 1-2.1 2.1-.9-.9c-1-1.1-2.8-1.1-3.9 0l-2.1 2.1c-1.1 1.1-1.1 2.8 0 3.9l3.7 3.7c.5.5 1.2.8 1.9.8s1.4-.3 1.9-.8l12.9-12.9 23.7 23.7-13.2 13.2-5.1-5.2c-1-1-2.6-1.7-4-1.7h-12.8c-2.3 0-4.2 1.9-4.2 4.2v21.8c0 2.3 1.9 4.2 4.2 4.2h26.8c2.3 0 4.2-1.9 4.2-4.2v-7.7c0-1.4-.7-3-1.6-4l-2.9-2.9 13.9-13.9 13.9 13.9-2.9 2.9c-1 1-1.7 2.6-1.7 4v7.7c0 2.3 1.9 4.2 4.2 4.2h26.8c1.7 0 3.3-1.1 3.9-2.6.3-.5.4-1 .4-1.6v-21.8c0-2.3-1.9-4.2-4.2-4.2h-12.8c-1.4 0-3 .7-4 1.7l-5.2 5.2-13.2-13.2 23.7-23.7 12.8 12.8c.5.5 1.2.8 1.9.8s1.4-.3 1.9-.8l3.7-3.7c.5-.5.8-1.2.8-1.9s-.3-1.4-.8-1.9l-2.1-2.1c-1.1-1.1-2.8-1.1-3.9 0l-.9.9-2.1-2.1 1-1c1.1-1.1 1.1-2.8 0-3.9l-.9-.9 1.5-1.5.9.9c1 1 2.8 1 3.9 0l1-1 2.2 2.2-1 1c-.5.5-.8 1.2-.8 1.9s.3 1.4.8 1.9l2.2 2.2c1 1 2.8 1.1 3.9 0l3.8-3.9c.5-.5.8-1.2.8-1.9.5-.7.2-1.4-.4-1.9zm-74.9 57.8H104v-17.3h10.2l12.1 12.2v5.1zm43.9-17.3h10.2v17.3H158v-5.1l12.1-12.2zM47.3 91l7.1-4.5c1.7-1.1 4.6-1.2 6.3-.2L86.5 100c1.1.6 2.2.6 3.1.1.9-.5 1.3-1.5 1.3-2.8V86.6c0-2.4-1.7-5.2-3.8-6.5L62.3 66.8c-2.1-1.1-5.4-1-7.5.3L25.7 86c-2 1.4-3.7 4.4-3.7 6.7v5.8c0 2.5 1.7 5.3 3.9 6.4l45 22.8c1.8.9 3.3 3.3 3.3 5.2v33.7c0 2-1.2 5-2.6 6.4l-12.2 12.2c-1.3 1.3-3.5 1.3-4.8 0l-13.9-13.9c-1.4-1.4-2.6-4.3-2.6-6.4v-21.7c0-2.6-2.1-4.6-4.6-4.6H27c-2.6 0-4.6 2.1-4.6 4.6v28c0 2.4 1.4 5.5 3.1 7.2L54.1 205c.9.9 2.1 1.3 3.3 1.3 1.2 0 2.4-.5 3.3-1.4l26.9-27.2c1.7-1.8 3-5 3-7.2v-47.8c0-2.4-1.7-5.3-3.8-6.5l-39.3-22c-.7-.4-1.2-1-1.2-1.5-.1-.7.3-1.2 1-1.7z"/><path class="st0" d="M178.9 84.9L125.4 53c-.7-.5-1.1-1-1.1-1.6 0-.6.4-1.2 1.1-1.6l13.3-8.9c1.6-1.1 4.4-1.3 6.1-.3l33 18.6c1.1.6 2.2.7 3.1.2.9-.5 1.3-1.5 1.3-2.8v-8.7c0-2.4-1.7-5.3-3.8-6.5l-32-18.3c-2.1-1.2-5.5-1.1-7.5.2l-34.8 23.4c-2 1.3-3.6 4.3-3.6 6.7v.1c0 2.4 1.7 5.3 3.8 6.5L165 95c1.7 1 3.2 3.5 3.2 5.5v72.8c0 2-1.1 5.1-2.5 6.7l-19.2 23c-.5.7-1.3 1-2 1.1-.8 0-1.6-.3-2.2-1L119.1 177c-1.4-1.6-2.5-4.5-2.5-6.6v-45.7c0-2.6-2.1-4.6-4.6-4.6h-5.5c-2.6 0-4.6 2.1-4.6 4.6v56.2c0 2.4 1.3 5.7 2.9 7.4l34.6 38.4c.8.9 2 1.4 3.1 1.4h.1c1.2 0 2.2-.6 3-1.5l34.4-40c1.5-1.7 2.8-5.1 2.8-7.4V91.4c-.2-2.5-1.8-5.3-3.9-6.5zm77.7 45.5l-11.8-7.9c-.7-.4-1-1-1-1.5 0-.6.4-1.1 1.1-1.5l10.4-5.3c2.2-1.1 3.9-3.9 3.9-6.4V94.2c0-2.5-1.6-5.3-3.7-6.5l-26-15.5c-2.1-1.2-5.4-1.2-7.5.1l-25.3 16.5c-2 1.4-3.7 4.4-3.7 6.7v107.8c0 2.5 2.1 4.6 4.6 4.6h7.9c2.5 0 4.6-2.1 4.6-4.6V125c0-.8.2-1.4.6-1.6.4-.2 1.1-.1 1.8.3l28.6 18.6c1.7 1.1 3.1 3.8 3.1 5.7v55.3c0 2.5 2.1 4.6 4.6 4.6h6.5c2.5 0 4.6-2.1 4.6-4.6v-66.2c.3-2.4-1.3-5.4-3.3-6.7zm-14.5-30.1c0 1.5-1.5 3.6-3.2 4.4l-9.2 4.9c-1.7.9-4.7.9-6.5 0l-8.8-4.8c-1.7-.9-3.2-3-3.2-4.4 0-1.4 1.3-3.6 3.1-4.7l8.4-5c.9-.5 2.2-.8 3.4-.8 1.1 0 2.1.2 3 .6l9.8 5.3c1.7.9 3.2 3 3.2 4.5z"/></svg>