<?xml version="1.0" encoding="utf-8"?>
<!-- Generator: Adobe Illustrator 24.1.2, SVG Export Plug-In . SVG Version: 6.00 Build 0)  -->
<svg version="1.1" id="Layer_1" xmlns="http://www.w3.org/2000/svg" xmlns:xlink="http://www.w3.org/1999/xlink" x="0px" y="0px"
	 viewBox="0 0 164.4 79.4" style="enable-background:new 0 0 164.4 79.4;" xml:space="preserve">
<style type="text/css">
	.st0{display:none;fill:#0078C8;}
	.st1{fill:#FFFFFF;}
</style>
<rect class="st0" width="164.4" height="79.4"/>
<g>
	<path class="st1" d="M147.1,38.3c-3,0-5.5-2.5-5.5-5.5h0c0-0.3-0.3-0.6-0.6-0.6s-0.6,0.3-0.6,0.6h0c0,3-2.5,5.5-5.5,5.5
		c-3,0-5.5-2.5-5.5-5.5c0-0.3-0.3-0.6-0.6-0.6c-0.3,0-0.6,0.3-0.6,0.6h0c0,3-2.5,5.5-5.5,5.5c-3,0-5.5-2.5-5.5-5.5h0
		c0-0.3-0.3-0.6-0.6-0.6c-0.3,0-0.6,0.3-0.6,0.6h0c0,3-2.5,5.5-5.5,5.5V26.1c3,0,5.5-2.5,5.5-5.5h0c0-0.3,0.3-0.6,0.6-0.6
		c0.3,0,0.6,0.3,0.6,0.6h0c0,3,2.5,5.5,5.5,5.5c3,0,5.5-2.5,5.5-5.5h0c0-0.3,0.3-0.6,0.6-0.6c0.3,0,0.6,0.3,0.6,0.6
		c0,3,2.5,5.5,5.5,5.5c3,0,5.5-2.5,5.5-5.5h0c0-0.3,0.3-0.6,0.6-0.6s0.6,0.3,0.6,0.6h0c0,3,2.5,5.5,5.5,5.5V38.3"/>
	<path class="st1" d="M147.1,50.5v-2h-2.6v-3H144l0,0l0,0l-3.3,4.5v0.5h0.9v4.4c0,2.4,1.7,3.2,3.1,3.2c0.8,0,1.5-0.2,2.4-0.8v-2.2
		c-0.6,0.5-1.1,0.7-1.5,0.7c-0.8,0-1.1-0.6-1.1-1.5v-3.9H147.1z"/>
	<path class="st1" d="M114.5,55.6c2.3,0,3-1.8,3-4.6c0-2.6-0.7-4.7-2.8-4.7h-0.9v9.3H114.5 M110.5,43.9h4.1c4.4,0,6,3.5,6,6.9
		c0,3.2-1.6,7.1-5.9,7.1h-4.3V43.9z"/>
	<path class="st1" d="M127,52.3c0-1.6-0.4-2.3-1.2-2.3c-0.8,0-1.2,0.9-1.2,2.3H127 M129.5,57.1c-1.1,0.7-2.2,0.9-3.4,0.9
		c-3.5,0-4.4-2.8-4.4-4.7c0-2.9,1.8-5.1,4.2-5.1c2.2,0,3.9,1.7,3.9,5.4h-5.1c0.1,1.6,1,2.5,2.4,2.5c0.8,0,1.5-0.2,2.5-0.8V57.1z"/>
	<rect x="130.9" y="43.9" class="st1" width="2.9" height="14"/>
	<path class="st1" d="M136.3,50.5h-0.9v-2h0.9v-0.7c0-2.8,1.8-4,3.9-4c0.5,0,1,0.1,1.6,0.2V46c-0.4-0.1-0.7-0.1-1-0.1
		c-1.1,0-1.5,0.6-1.5,1.6v0.9h0.8v2h-0.8v7.4h-2.9V50.5"/>
	<path class="st1" d="M28,56.4c-0.9,0.7-1.3,0.9-2.2,1.2c-0.7,0.2-1.7,0.4-2.3,0.4c-3.5,0-6-2.9-6-7c0-4.2,2.6-7.4,6.1-7.4
		c1.4,0,2.6,0.3,3.9,1.1v2.9c-1.3-1-2.2-1.4-3.3-1.4c-2.2,0-3.5,1.7-3.5,4.8c0,2.7,1,4.3,2.8,4.3c0.4,0,0.9-0.1,1.3-0.3v-2.4h-1.6
		v-2.3H28V56.4"/>
	<path class="st1" d="M35,52.3c0-1.5-0.4-2.3-1.1-2.3c-0.8,0-1.2,0.7-1.3,2.3H35 M37.5,57.1c-1.2,0.7-2.2,0.9-3.5,0.9
		c-2.7,0-4.3-1.8-4.3-4.7c0-2.9,1.8-5.1,4.1-5.1c1.8,0,3.2,1.1,3.7,3c0.2,0.8,0.2,1.1,0.3,2.4h-5.1c0.1,1.6,1,2.5,2.4,2.5
		c0.8,0,1.5-0.2,2.5-0.8V57.1z"/>
	<path class="st1" d="M39.7,48.4h3v1.5h0c0.8-1.1,1.7-1.6,2.8-1.6c1.3,0,2.2,0.7,2.7,1.9c0.7-1.3,1.6-1.9,3-1.9c1,0,1.9,0.5,2.5,1.3
		c0.4,0.6,0.5,1.3,0.5,2.3v6h-3v-5.6c0-1.4-0.3-1.8-1.1-1.8c-0.6,0-1.2,0.4-1.7,1.3v6.1h-3v-5.2c0-1.6-0.3-2.2-1.1-2.2
		c-0.6,0-1.1,0.5-1.6,1.4v6h-3V48.4"/>
	<path class="st1" d="M61.3,52.3c0-1.5-0.4-2.3-1.1-2.3c-0.8,0-1.2,0.7-1.2,2.3H61.3 M63.7,57.1c-1.2,0.7-2.2,0.9-3.5,0.9
		c-2.7,0-4.3-1.8-4.3-4.7c0-2.9,1.8-5.1,4.1-5.1c1.8,0,3.2,1.1,3.7,3c0.2,0.8,0.2,1.1,0.3,2.4h-5.1c0.1,1.6,1,2.5,2.4,2.5
		c0.8,0,1.5-0.2,2.5-0.8V57.1z"/>
	<path class="st1" d="M70.9,52.3c0-1.5-0.4-2.3-1.1-2.3c-0.8,0-1.2,0.7-1.3,2.3H70.9 M73.3,57.1c-1.2,0.7-2.2,0.9-3.5,0.9
		c-2.7,0-4.3-1.8-4.3-4.7c0-2.9,1.8-5.1,4.1-5.1c1.8,0,3.2,1.1,3.7,3c0.2,0.8,0.2,1.1,0.3,2.4h-5.1c0.1,1.6,1,2.5,2.4,2.5
		c0.8,0,1.5-0.2,2.5-0.8V57.1z"/>
	<path class="st1" d="M75.5,48.4h3v1.3h0c0.7-1,1.5-1.5,2.7-1.5c1.1,0,2.1,0.5,2.5,1.4c0.3,0.6,0.5,1.3,0.5,2.3v5.9h-3v-5
		c0-1.9-0.2-2.4-1.1-2.4c-0.7,0-1.2,0.5-1.6,1.5v6h-3V48.4"/>
	<path class="st1" d="M99.1,52.3c0-1.5-0.4-2.3-1.1-2.3c-0.8,0-1.2,0.7-1.2,2.3H99.1 M101.6,57.1c-1.2,0.7-2.2,0.9-3.5,0.9
		c-2.7,0-4.3-1.8-4.3-4.7c0-2.9,1.8-5.1,4.1-5.1c1.8,0,3.2,1.1,3.7,3c0.2,0.8,0.2,1.1,0.3,2.4h-5.1c0.1,1.6,1,2.5,2.4,2.5
		c0.8,0,1.5-0.2,2.5-0.8V57.1z"/>
	<path class="st1" d="M92.4,50.5v-2h-2.6v-3h-0.5l0,0l0,0L86,49.9v0.5h0.9v4.4c0,2.4,1.7,3.2,3.1,3.2c0.8,0,1.5-0.2,2.4-0.8v-2.2
		c-0.6,0.5-1.1,0.7-1.5,0.7c-0.8,0-1.1-0.6-1.1-1.5v-3.9H92.4z"/>
</g>
</svg>
