<?xml version="1.0" encoding="utf-8"?>
<!-- Generator: Adobe Illustrator 24.1.2, SVG Export Plug-In . SVG Version: 6.00 Build 0)  -->
<svg version="1.1" id="Laag_1" xmlns="http://www.w3.org/2000/svg" xmlns:xlink="http://www.w3.org/1999/xlink" x="0px" y="0px"
	 viewBox="0 0 140 84" style="enable-background:new 0 0 140 84;" xml:space="preserve">
<style type="text/css">
	.st0{fill:#FFFFFF;}
</style>
<g id="layer101">
	<path class="st0" d="M17.1,61.1c0-0.1-0.4-0.9-0.8-1.9c-0.4-1-1.1-2.5-1.4-3.3c-0.4-0.8-0.7-1.6-0.8-1.6c-0.1-0.1-0.3-0.2-0.5-0.2
		c-0.7-0.1-0.2-0.2,1.3-0.2c1.5,0,1.7,0,1.1,0.3c-0.6,0.2-0.5,0.5,0.4,2.6c0.2,0.3,0.5,1.1,0.7,1.6c0.2,0.5,0.4,0.9,0.5,0.9
		c0,0,0.3-0.5,0.5-1.1c0.2-0.6,0.6-1.6,0.9-2.2c0.6-1.4,0.6-1.7,0.1-1.8c-0.6-0.2-0.4-0.3,0.8-0.3c1.1,0,1.4,0.1,0.8,0.3
		c-0.4,0.1-0.4,0-2.2,4.5c-0.4,1-0.8,1.9-0.9,2.1C17.5,61.2,17.3,61.3,17.1,61.1z"/>
	<path class="st0" d="M40.7,59.6c-0.7-0.9-1.4-1.7-1.5-1.8c-0.1-0.2-0.4-0.4-0.5-0.6l-0.3-0.4v1.9c0,1,0.1,1.9,0.1,2
		c0.1,0.1,0.2,0.2,0.4,0.3c0.3,0.1,0.2,0.1-0.7,0.1s-1,0-0.7-0.1c0.2-0.1,0.4-0.2,0.4-0.3c0.1-0.1,0.1-1.1,0.1-2.3
		c0-2.4,0-2.5-0.7-2.7c-0.6-0.2-0.5-0.3,0.4-0.3h0.8l1.7,2.1l1.7,2.1l0-1.7c0-2,0-2.1-0.4-2.2c-0.6-0.1-0.3-0.2,0.7-0.2
		c0.6,0,1,0,1,0.1s-0.1,0.1-0.2,0.1c-0.5,0-0.5,0.2-0.6,3c0,1.4-0.1,2.6-0.1,2.6S41.4,60.4,40.7,59.6z"/>
	<path class="st0" d="M48.3,61c-0.6-0.1-0.9-0.3-1.3-0.8c-0.6-0.7-0.7-1-0.7-1.9c0-0.8,0-0.9,0.4-1.4c0.5-0.8,1-1.3,1.7-1.4
		c0.7-0.2,1.2-0.2,2,0c0.6,0.1,0.6,0.1,0.7,0c0.2-0.3,0.3,0,0.3,0.8v0.9l-0.3-0.6c-0.4-0.7-0.9-1-1.6-1c-1,0-1.5,0.4-1.9,1.5
		c-0.4,1-0.1,2.3,0.6,3.1c0.5,0.6,1.4,0.8,2.1,0.5l0.4-0.2l0-0.9c0-1.2-0.1-1.4-0.5-1.5c-0.2-0.1-0.3-0.1-0.3-0.1
		c0,0,0.5-0.1,1.2-0.1c0.9,0,1.1,0,0.9,0.1c-0.4,0.2-0.5,0.4-0.5,1.5v1.1l-0.7,0.2C49.9,61.1,49,61.2,48.3,61z"/>
	<path class="st0" d="M58.5,59.6c-0.7-0.9-1.5-1.8-1.8-2.2l-0.5-0.6l0,1.7c0,2,0,2.3,0.5,2.5C57,61,56.9,61,55.9,61
		c-0.9,0-1,0-0.8-0.1c0.6-0.2,0.6-0.2,0.6-2.5c0-2.5,0-2.6-0.7-2.7c-0.6-0.2-0.5-0.3,0.4-0.3h0.8l1.7,2.1l1.7,2.1l0-1.8
		c0-1.9,0-2.2-0.4-2.2c-0.1,0-0.3,0-0.3-0.1s0.4-0.1,1-0.1s1,0,1,0.1s-0.1,0.1-0.2,0.1c-0.5,0-0.5,0.2-0.6,3c0,1.4-0.1,2.6-0.1,2.6
		S59.2,60.4,58.5,59.6z"/>
	<path class="st0" d="M63.2,61c-1.3-0.4-2.1-1.4-2.1-2.7c0-0.8,0.2-1.4,0.8-2.1c0.8-0.9,1.9-1.2,3.1-0.8c0.6,0.2,0.7,0.2,0.8,0
		c0.1-0.2,0.1-0.2,0.2,0.1c0,0.2,0,0.6,0.1,1c0.1,0.4,0,0.6,0,0.6c-0.1,0-0.1-0.1-0.2-0.3c-0.1-0.4-0.7-1-1.3-1.1
		c-0.6-0.1-1.4,0-1.7,0.4c-0.9,0.8-1.1,2.7-0.3,3.8c0.5,0.8,1.4,1.1,2.3,0.9l0.4-0.1l0-1.2l0-1.2L65,58.1l-0.4-0.2h1.2l1.2,0
		l-0.3,0.2c-0.4,0.2-0.5,0.5-0.5,1.7v0.9l-0.4,0.2C65.2,61.1,63.9,61.2,63.2,61z"/>
	<path class="st0" d="M67.6,60.1l0-1l0.2,0.5c0.2,0.6,0.5,0.9,0.9,1.1c1,0.4,2-0.3,1.6-1.1c-0.1-0.2-0.4-0.5-1.1-0.9
		c-1.2-0.7-1.6-1.1-1.7-1.6c-0.2-1.3,1-2.1,2.4-1.6c0.5,0.2,0.6,0.2,0.7,0c0.1-0.2,0.1,0,0.1,0.8l0,1l-0.1-0.5
		c-0.2-0.6-0.6-1-1.1-1.1c-0.5-0.1-0.9-0.1-1.1,0.3c-0.5,0.6-0.2,0.9,1.3,1.9c1.2,0.7,1.4,1.1,1.4,1.8c0,0.4-0.1,0.6-0.3,0.9
		c-0.6,0.7-1.4,0.8-2.4,0.5c-0.5-0.2-0.6-0.2-0.7,0C67.6,61.1,67.6,61,67.6,60.1z"/>
	<path class="st0" d="M21.3,60.9c0.6-0.2,0.6-0.1,0.6-2.7c0-2.5,0-2.6-0.5-2.6c-0.1,0-0.3,0-0.3-0.1c0-0.1,0.7-0.1,2.2-0.1h2.2V56
		c0,0.7-0.1,0.8-0.3,0.3c-0.1-0.4-0.5-0.6-1.7-0.6h-0.8v1.1v1.1h0.8c1,0,1.2-0.1,1.3-0.4c0.1-0.6,0.2-0.4,0.2,0.6c0,0.6,0,1-0.1,0.9
		c-0.1,0-0.1-0.1-0.1-0.2c0-0.3-0.3-0.5-1.2-0.5l-0.9-0.1v1.1c0,1.4,0,1.5,1.1,1.5c1.1,0,1.3-0.1,1.6-0.7c0.1-0.2,0.3-0.4,0.4-0.4
		c0.1,0,0.1,0.1-0.1,0.8L25.5,61l-2.2,0C21.6,61,21.1,61,21.3,60.9z"/>
	<path class="st0" d="M26.6,60.9c0.5-0.2,0.5-0.4,0.5-2.9c0-2.2-0.1-2.4-0.6-2.4c-0.1,0-0.2-0.1-0.2-0.1c0-0.1,0.5-0.1,1.7-0.1
		c1.9,0,2.2,0.1,2.6,0.8c0.4,0.7,0.1,1.5-0.7,1.9l-0.5,0.2l0.8,1.1c0.4,0.6,0.9,1.2,1.1,1.3c0.3,0.2,1.1,0.3,1.3,0.1
		c0.1-0.1,0.1-0.7,0.1-2.6c0-2.6,0-2.6-0.5-2.6c-0.1,0-0.2,0-0.2-0.1s0.8-0.1,2.2-0.1c2.4,0,2.3,0,2.3,0.8c0,0.3,0,0.5-0.2,0.5
		c-0.1,0-0.2-0.1-0.2-0.2c0-0.1-0.1-0.3-0.2-0.4c-0.2-0.2-0.3-0.2-1.2-0.3l-1,0v1.1v1.1h0.8c0.9,0,1.2-0.2,1.2-0.6
		c0-0.1,0.1-0.2,0.1-0.1c0.1,0.1,0.1,1.9,0,1.9c-0.1,0-0.1-0.1-0.2-0.3c-0.1-0.4-0.5-0.5-1.4-0.5h-0.7l0,1.2l0,1.2l1,0l1,0l0.3-0.3
		c0.2-0.2,0.4-0.5,0.5-0.6c0.3-0.4,0.3-0.2,0.1,0.5L36.3,61h-3h-3l-0.9-1.3c-0.8-1.1-0.9-1.3-1.2-1.3h-0.3v1c0,0.5,0.1,1.1,0.1,1.2
		c0.1,0.1,0.2,0.2,0.4,0.3c0.3,0.1,0.2,0.1-0.9,0.1C26.3,61,26.2,61,26.6,60.9z M29.1,57.9c0.5-0.3,0.7-1.3,0.3-1.8
		c-0.2-0.3-0.8-0.4-1.1-0.3l-0.3,0.1l0,1.2l0,1.2l0.5-0.1C28.6,58,29,57.9,29.1,57.9z"/>
	<path class="st0" d="M43.4,60.9c0.6-0.2,0.6-0.1,0.5-2.8l0-2.4l-0.3-0.1c-0.6-0.2-0.5-0.3,0.8-0.3c0.8,0,1.3,0,1.3,0.1
		s-0.1,0.1-0.2,0.1c-0.5,0-0.5,0.2-0.6,2.4c0,2.5,0,2.7,0.5,2.9c0.3,0.1,0.2,0.1-0.9,0.1C43.4,61,43.2,61,43.4,60.9z"/>
	<path class="st0" d="M52.4,60.9c0.5-0.2,0.5-0.5,0.5-3c0-2.2-0.1-2.4-0.6-2.4c-0.1,0-0.2,0-0.2-0.1s0.5-0.1,1.2-0.1
		c0.7,0,1.2,0,1.2,0.1s-0.1,0.1-0.2,0.1c-0.1,0-0.3,0.1-0.4,0.2c-0.1,0.1-0.2,0.5-0.1,2.5l0,2.4l0.4,0.2l0.4,0.2h-1.2
		C52.2,61,52.1,61,52.4,60.9z"/>
	<path class="st0" d="M71.8,60.9c0-0.1,0.1-0.1,0.3-0.1c0.7,0,0.8-0.3,0.7-3.8c0-2.4,0-2.6-0.2-2.8c-0.1-0.1-0.3-0.1-0.5-0.1
		c-0.2,0-0.3,0-0.3-0.1s0.8-0.1,2.1-0.1c2,0,2.1,0,2.6,0.3c1.5,0.8,1.3,2.7-0.3,3.2c-0.2,0.1-0.4,0.2-0.4,0.2c0,0.2,1.9,2.6,2.2,2.9
		c0.4,0.3,1.1,0.4,1.2,0.2c0.1-0.2,1-2.1,1.9-4.1c0.3-0.8,0.6-1.4,0.7-1.4c0.1,0,0.2,0.3,0.4,0.6c0.1,0.3,0.3,0.8,0.4,1
		c0.1,0.2,0.5,1.1,0.8,1.9c0.6,1.6,0.9,2,1.2,2c0.1,0,0.2,0.1,0.2,0.1c0,0.1-0.4,0.1-1.1,0.1c-0.6,0-1.1,0-1.1-0.1
		c0,0,0.1-0.1,0.3-0.2c0.2-0.1,0.3-0.1,0.2-0.5c0-0.2-0.1-0.6-0.2-0.8l-0.2-0.4h-1.1h-1.1l-0.2,0.6c-0.3,0.7-0.2,1,0.1,1
		c0.1,0,0.2,0.1,0.3,0.1C80.7,61,80,61,78.9,61H77l-0.9-1.3c-0.5-0.7-1-1.4-1.2-1.6c-0.2-0.3-0.3-0.4-0.6-0.4h-0.4l0,1.4
		c0,1.5,0.1,1.7,0.7,1.7c0.2,0,0.3,0.1,0.3,0.1c0,0.1-0.6,0.1-1.5,0.1C72.4,61,71.8,61,71.8,60.9z M82.2,58.2
		c-0.1-0.4-0.4-0.8-0.5-1.1l-0.2-0.4l-0.5,1c-0.3,0.6-0.5,1-0.5,1.1c0,0,0.4,0.1,0.9,0.1h0.9L82.2,58.2z M75.4,57
		c0.7-0.4,1-1.1,0.6-1.9c-0.3-0.6-1-0.9-1.8-0.8l-0.4,0.1v1.4v1.4l0.6-0.1C74.8,57.2,75.2,57.1,75.4,57z"/>
	<path class="st0" d="M84.9,61c0,0,0.1-0.1,0.3-0.2c0.2-0.1,0.4-0.3,0.6-0.8c0.2-0.4,0.4-0.9,0.6-1.2c0.1-0.3,0.5-1,0.7-1.6
		c0.6-1.4,0.9-1.9,1-1.9c0.1,0,0.7,1.5,1.5,3.5c0.6,1.6,0.9,2.1,1.2,2.1c0.1,0,0.2,0.1,0.2,0.1c0,0.1-0.5,0.1-1.1,0.1
		c-0.6,0-1.1,0-1.1-0.1c0,0,0.1-0.1,0.3-0.2c0.2-0.1,0.3-0.1,0.2-0.5c0-0.2-0.1-0.6-0.2-0.8l-0.2-0.4h-1.1h-1.1l-0.2,0.6
		c-0.3,0.7-0.2,1,0.1,1c0.1,0,0.2,0.1,0.3,0.1c0.1,0.1-0.3,0.1-0.9,0.1C85.3,61,84.9,61,84.9,61z M88.3,58c-0.5-1.4-0.5-1.4-1-0.2
		c-0.3,0.5-0.5,1-0.5,1c0,0,0.4,0,0.9,0h0.9L88.3,58z"/>
	<path class="st0" d="M91.5,60.8l0.4-0.2l0-2.4c0-2.1,0-2.4-0.1-2.5c-0.1-0.1-0.2-0.2-0.4-0.2c-0.1,0-0.2-0.1-0.2-0.1
		c0-0.1,0.5-0.1,1.8-0.1c2,0.1,2.4,0.1,3,0.7c0.5,0.5,0.7,1,0.8,1.8c0.1,1.3-0.5,2.4-1.5,2.9c-0.5,0.2-0.7,0.2-2.4,0.3
		C91.1,61,91.1,61,91.5,60.8z M94.8,60.3c0.2-0.2,0.6-0.5,0.7-0.8c0.2-0.4,0.3-0.6,0.3-1.4c0-0.8,0-1-0.2-1.4
		c-0.4-0.8-1.4-1.2-2.4-1.1l-0.4,0.1l0,2.4c0,2.7-0.1,2.5,1,2.5C94.3,60.7,94.5,60.6,94.8,60.3z"/>
	<path class="st0" d="M99.4,60.9c0-0.1,0.1-0.1,0.3-0.1c0.2,0,0.4-0.1,0.5-0.2c0.2-0.2,0.2-0.3,0.2-3.1c0-3.2,0-3.4-0.6-3.4
		c-0.2,0-0.3,0-0.4-0.1c-0.1-0.1,4.1-0.1,4.7,0c1,0.2,1.7,0.8,2.2,1.8c0.7,1.5,0.3,3.5-0.9,4.4c-0.8,0.6-1.4,0.7-3.8,0.8
		C100.1,61,99.4,61,99.4,60.9z M103.8,60.4c1.8-0.9,2.3-3.8,0.8-5.3c-0.5-0.5-1.2-0.8-2.1-0.7c-1.1,0-1-0.3-1,3.2v3l0.2,0.1
		C102.5,60.7,103.2,60.7,103.8,60.4z"/>
	<path class="st0" d="M107.6,60.8l0.4-0.2l0-2.4c0-2.6,0-2.7-0.5-2.7c-0.1,0-0.2,0-0.2-0.1s0.8-0.1,2.2-0.1h2.2V56
		c0,0.7-0.1,0.8-0.3,0.3c-0.1-0.4-0.5-0.6-1.7-0.6l-0.9,0v1.1v1.1h0.9c0.5,0,0.9,0,1-0.1c0.1,0,0.2-0.2,0.3-0.4
		c0.2-0.4,0.2-0.4,0.2,0.6c0,0.6,0,1-0.1,0.9c-0.1,0-0.1-0.1-0.1-0.2c0-0.3-0.3-0.5-1.2-0.5l-0.9-0.1v1c0,0.5,0,1.1,0.1,1.2
		c0.1,0.3,0.1,0.3,1,0.3c1.1,0,1.3-0.1,1.7-0.7c0.2-0.4,0.4-0.5,0.4-0.3c0,0-0.1,0.4-0.2,0.7l-0.2,0.6h-2.2
		C107.3,61,107.2,61,107.6,60.8z"/>
	<path class="st0" d="M112.7,60.9c0.5-0.2,0.5-0.5,0.5-3c0-2.2-0.1-2.4-0.6-2.4c-0.1,0-0.2,0-0.2-0.1s0.5-0.1,1.2-0.1
		c0.8,0,1.2,0,1.2,0.1s-0.1,0.1-0.2,0.1c-0.6,0-0.6,0.1-0.6,2.7l0,2.3h1c1,0,1,0,1.3-0.3c0.2-0.2,0.4-0.4,0.4-0.6
		c0.1-0.2,0.2-0.3,0.2-0.3c0.1,0,0.1,0-0.1,0.9l-0.2,0.7l-2.2,0C112.7,61,112.4,61,112.7,60.9z"/>
	<path class="st0" d="M117.8,60.9c0.5-0.2,0.5-0.4,0.5-2.9c0-2.2-0.1-2.4-0.6-2.4c-0.1,0-0.2,0-0.2-0.1s0.8-0.1,2.1-0.1h2.1V56
		c0,0.3,0,0.6-0.1,0.6c-0.1,0-0.2-0.2-0.3-0.4c-0.2-0.4-0.6-0.6-1.6-0.6h-0.6v1.1V58l0.7-0.1c0.8-0.1,1-0.2,1-0.6
		c0-0.1,0.1-0.2,0.1-0.2c0.1,0,0.1,0.4,0.1,1c0,1,0,1-0.2,0.7c-0.2-0.4-0.5-0.5-1.2-0.5h-0.5v1.2c0,1.2,0,1.3,0.6,1.5
		c0.2,0.1,0.1,0.1-1,0.1C117.6,61,117.5,61,117.8,60.9z"/>
	<path class="st0" d="M123.8,60.9c0.2-0.1,0.4-0.2,0.4-0.4c0-0.1,0.1-1.3,0.1-2.5l0-2.2l-0.4,0c-0.7,0-0.9,0.1-1.1,0.5
		c-0.3,0.5-0.4,0.5-0.4-0.1c0-0.9-0.2-0.8,2.4-0.8h2.3V56c0,0.4,0,0.7-0.1,0.7c-0.1,0-0.1-0.1-0.1-0.1c0-0.1-0.1-0.3-0.2-0.4
		c-0.2-0.2-0.4-0.3-0.9-0.3l-0.6-0.1v2.4c0,1.3,0.1,2.4,0.1,2.5c0.1,0.1,0.2,0.2,0.4,0.3c0.3,0.1,0.2,0.1-0.9,0.1
		C123.5,61,123.4,61,123.8,60.9z"/>
	<path class="st0" d="M9.5,51.3c-0.1-0.1-0.1-0.2-0.1-0.3c0.1-0.1,120.9-0.1,121,0c0,0.1,0,0.2-0.1,0.3c-0.1,0.1-7.8,0.2-60.5,0.2
		S9.7,51.4,9.5,51.3z"/>
	<path class="st0" d="M42.7,43.2c0.2-2.7,0.7-17.9,0.6-18.3c-0.1-0.6-0.5-1-1.2-1.1c-0.5-0.1-0.6-0.1-0.5-0.3c0-0.1,0.1-0.3,0.1-0.3
		c0-0.1,2-0.1,4.4-0.1h4.4l-0.1,0.3c-0.1,0.2-0.2,0.3-0.7,0.4c-1.1,0.2-1.6,1-1.7,2.8c-0.1,1-0.5,9.9-0.5,10.6l0,0.5l0.2-0.3
		c0.1-0.2,0.8-0.9,1.5-1.8c0.7-0.8,1.5-1.7,1.7-2c0.2-0.3,1.4-1.6,2.5-2.9c3-3.5,3.7-4.4,4-5.1c0.3-0.9,0.2-1.2-0.4-1.6
		c-0.3-0.1-0.6-0.3-0.7-0.3c-0.3-0.1-0.3-0.1-0.2-0.4l0.1-0.3h2.9H62v0.3c0,0.2-0.1,0.3-0.2,0.4c-0.9,0.3-1.6,0.9-2.7,2.2
		c-1,1.2-6.7,7.8-7.3,8.4c-0.3,0.4-0.7,0.8-0.8,0.9c-0.1,0.1-0.4,0.5-0.7,0.8c-0.3,0.3-1.9,2.2-3.7,4.3c-3.2,3.7-3.3,3.8-3.6,3.8
		h-0.4L42.7,43.2z"/>
	<path class="st0" d="M23.4,43c-0.1-0.7-0.5-1.2-1.1-1.6c-0.8-0.6-1.3-0.6-4.2-0.6c-2.9,0-2.9,0-3.1-0.7c-0.1-0.4-0.2-16.9,0-17.2
		c0.1-0.1,0.9-0.2,8.9-0.2h8.9v8.7v8.7l-0.4,0.3l-0.4,0.3h-2.5c-2.3,0-2.6,0-3.3,0.2c-1.3,0.4-2,1.1-2.2,2.1
		C23.8,43.8,23.5,43.8,23.4,43z M24.6,41.2c0.6-0.4,1.1-0.6,1.8-0.7c0.5-0.1,0.6-0.1,0.6-0.4c0-0.3,0-0.3-0.2-0.2
		c-0.4,0.2-1.2,0.2-1.6,0c-0.3-0.2-0.4-0.2-0.7,0c-0.4,0.2-1.2,0.2-1.6,0c-0.3-0.1-0.3-0.1-0.8,0c-0.3,0.1-0.6,0.2-1,0.1
		c-0.5-0.1-0.6,0-0.6,0.2c0,0.2,0.1,0.2,0.5,0.3c1,0.1,2,0.8,2.4,1.6l0.1,0.3l0.3-0.4C24,41.8,24.4,41.4,24.6,41.2z M20.1,31.8
		l0-8.6h-2.5h-2.5l0,8.5l0,8.5l0.2,0.2c0.2,0.2,0.4,0.2,2.4,0.2l2.2,0L20.1,31.8z M31.8,40.3c0.2-0.1,0.3-0.2,0.4-0.3
		c0-0.1,0.1-3.9,0.1-8.5v-8.3h-2.4h-2.4v8.7v8.7h2.1C31.1,40.5,31.6,40.5,31.8,40.3z M22.1,39.5c0.2-0.1,0.4-0.2,0.4-0.3
		c0-0.3,0.2-0.2,0.5,0.2c0.3,0.3,0.3,0.3,0.9,0.3c0.5-0.1,0.6-0.1,0.8-0.3c0.2-0.3,0.5-0.3,0.5,0c0,0.3,0.9,0.5,1.5,0.2
		c0.3-0.1,0.4-0.2,0.4-0.7c0-0.5,0-0.5-0.3-0.4c-0.4,0.2-1.2,0.1-1.6,0c-0.2-0.1-0.3-0.1-0.5,0c-0.3,0.2-1.4,0.2-1.7,0
		c-0.2-0.1-0.3-0.1-0.6,0c-0.2,0.1-0.6,0.1-1,0.1l-0.6,0V39c0,0.4,0,0.5,0.2,0.6C21.2,39.7,21.7,39.7,22.1,39.5z M22.3,37.9
		c0.3-0.3,0.6-0.3,0.6-0.1c0,0.4,1.4,0.5,1.8,0.1c0.2-0.3,0.3-0.3,0.6,0c0.2,0.2,0.3,0.3,0.8,0.3c0.8,0,1-0.2,1-0.8
		c0-0.4,0-0.5-0.2-0.4c-0.5,0.2-1.2,0.2-1.6,0c-0.3-0.2-0.4-0.2-0.6,0c-0.3,0.2-1.4,0.2-1.8,0c-0.2-0.1-0.3-0.2-0.4,0
		c-0.3,0.2-1.2,0.3-1.5,0.2l-0.3-0.1v0.5c0,0.6,0.1,0.7,0.9,0.7C21.9,38.1,22.1,38.1,22.3,37.9z M22,36.5c0.2-0.1,0.4-0.2,0.4-0.3
		c0.1-0.2,0.4-0.2,0.5,0.1c0.1,0.3,0.5,0.5,1.2,0.3c0.4-0.1,0.6-0.2,0.6-0.3c0.1-0.2,0.3-0.2,0.4,0c0.2,0.4,1.1,0.5,1.6,0.2
		c0.2-0.1,0.2-0.3,0.2-0.6v-0.4l-0.3,0.1c-0.5,0.1-1.3,0.1-1.5-0.1c-0.2-0.1-0.3-0.1-0.5,0c-0.4,0.2-1.4,0.2-1.8,0
		c-0.2-0.1-0.3-0.1-0.3-0.1c-0.1,0.2-1.1,0.4-1.5,0.2l-0.4-0.1l0,0.5c0,0.4,0.1,0.5,0.3,0.6C21.2,36.7,21.5,36.7,22,36.5z M22.2,35
		c0.1-0.1,0.2-0.2,0.2-0.2c0-0.2,0.4-0.1,0.4,0.1c0.1,0.3,0.5,0.5,1.2,0.3c0.4-0.1,0.6-0.2,0.6-0.3c0.1-0.3,0.3-0.2,0.4,0
		c0.2,0.4,1.1,0.5,1.6,0.2c0.2-0.1,0.2-0.2,0.2-0.6c0-0.4,0-0.5-0.2-0.4c-0.4,0.2-1.2,0.2-1.6,0c-0.3-0.2-0.4-0.2-0.7,0
		c-0.5,0.2-1.1,0.2-1.5,0c-0.3-0.1-0.4-0.1-0.8,0c-0.3,0.1-0.6,0.2-1,0.1L20.6,34v0.4c0,0.5,0.1,0.6,0.5,0.7
		C21.3,35.3,21.9,35.2,22.2,35z M22,33.6c0.2-0.1,0.4-0.2,0.4-0.3c0.1-0.3,0.2-0.2,0.6,0.1c0.2,0.2,0.4,0.3,0.6,0.3
		c0.5,0,0.9-0.2,1.1-0.4c0.2-0.2,0.4-0.2,0.4,0.1c0,0.3,0.9,0.5,1.4,0.3c0.4-0.1,0.4-0.3,0.4-0.8c0-0.4,0-0.4-0.3-0.3
		c-0.6,0.2-1.6,0.1-1.8-0.2c-0.1-0.1-0.1-0.1-0.1,0c0,0.3-1.5,0.5-1.9,0.2c-0.2-0.1-0.3-0.1-0.6,0c-0.3,0.1-0.6,0.2-1,0.1l-0.6,0V33
		c0,0.4,0,0.5,0.2,0.6C21.1,33.7,21.6,33.7,22,33.6z M22.4,31.8c0.2-0.3,0.5-0.3,0.5,0c0,0.2,0.4,0.4,1,0.3c0.5,0,0.6-0.1,0.8-0.3
		c0.2-0.3,0.5-0.3,0.5,0c0,0.2,0.5,0.4,1,0.4c0.7-0.1,0.8-0.2,0.8-0.8c0-0.5,0-0.5-0.5-0.3c-0.5,0.1-1.1,0-1.4-0.2
		c-0.1-0.1-0.2-0.1-0.4,0c-0.4,0.2-1.5,0.3-1.8,0c-0.2-0.1-0.3-0.1-0.3-0.1C22.4,31,21.4,31.2,21,31l-0.4-0.1v0.5
		c0,0.6,0.2,0.7,1,0.7C22.1,32.1,22.2,32,22.4,31.8z M21.8,30.6c0.2-0.1,0.5-0.2,0.5-0.4c0.2-0.3,0.4-0.2,0.5,0.1
		c0.1,0.3,0.6,0.4,1.2,0.3c0.4-0.1,0.6-0.2,0.6-0.4c0.1-0.3,0.3-0.3,0.4,0c0.2,0.5,1,0.6,1.6,0.2c0.2-0.1,0.2-0.2,0.2-0.6
		c0-0.4,0-0.5-0.2-0.4c-0.5,0.3-1.7,0.2-1.8-0.1c0-0.1-0.3-0.2-0.3,0c0,0.1-1,0.3-1.4,0.2c-0.2,0-0.4-0.1-0.5-0.2
		c-0.2-0.1-0.2-0.1-0.5,0c-0.4,0.2-0.9,0.3-1.4,0.2l-0.4-0.1V30c0,0.4,0,0.5,0.3,0.6C21.3,30.7,21.4,30.7,21.8,30.6z M21.8,29.2
		c0.2-0.1,0.5-0.2,0.5-0.4c0.2-0.3,0.3-0.3,0.5,0c0.2,0.5,1.4,0.5,1.8,0c0.2-0.3,0.5-0.3,0.5,0c0,0.2,0.7,0.5,1.1,0.4
		c0.6-0.1,0.8-0.3,0.8-0.8c0-0.4,0-0.5-0.2-0.4c-0.5,0.2-1.2,0.2-1.6,0c-0.4-0.2-0.4-0.2-0.6-0.1c-0.4,0.2-1.3,0.3-1.7,0.1
		c-0.3-0.2-0.3-0.2-0.7,0c-0.3,0.2-0.5,0.2-1,0.1L20.6,28v0.5c0,0.4,0,0.5,0.3,0.6C21.3,29.3,21.4,29.3,21.8,29.2z M22,27.6
		c0.2-0.1,0.4-0.2,0.4-0.3c0.1-0.3,0.2-0.2,0.6,0.1c0.2,0.2,0.4,0.3,0.7,0.3c0.5,0,1.1-0.3,1.1-0.5c0-0.2,0.3-0.2,0.5,0.1
		c0.2,0.3,0.6,0.4,1.1,0.3c0.5-0.1,0.7-0.3,0.7-0.9c0-0.4,0-0.5-0.2-0.4c-0.4,0.2-1.3,0.2-1.6,0c-0.3-0.2-0.3-0.2-0.6,0
		c-0.4,0.2-1.3,0.2-1.7,0c-0.2-0.2-0.3-0.2-0.6,0c-0.4,0.2-1.2,0.2-1.5,0.1c-0.2-0.1-0.2-0.1-0.2,0.5c0,0.5,0,0.6,0.3,0.7
		C21.2,27.7,21.6,27.7,22,27.6z M22.4,25.8c0.2-0.3,0.5-0.3,0.5,0c0,0.2,0.3,0.4,0.8,0.4c0.5,0,1-0.2,1-0.5c0-0.2,0.2-0.2,0.5,0.2
		c0.3,0.3,0.3,0.3,0.9,0.3c0.7-0.1,0.9-0.2,0.9-0.8v-0.5L26.5,25c-0.6,0.2-0.7,0.2-1.3-0.1c-0.4-0.2-0.5-0.2-0.7-0.1
		C24,25.1,23.4,25.2,23,25c-0.4-0.2-0.4-0.2-0.9,0c-0.5,0.2-0.7,0.2-1.3,0c-0.2-0.1-0.2,0-0.2,0.4c0,0.6,0.2,0.8,1,0.8
		C22.1,26.1,22.2,26.1,22.4,25.8z M21.8,24.6c0.2-0.1,0.5-0.2,0.5-0.4c0.2-0.3,0.3-0.3,0.5,0c0.2,0.6,1.5,0.6,1.8,0
		c0.2-0.3,0.3-0.3,0.5,0c0.2,0.5,1,0.6,1.6,0.2c0.2-0.1,0.2-0.2,0.2-0.7v-0.6h-3.2h-3.2v0.6c0,0.6,0,0.6,0.3,0.8
		C21.3,24.8,21.4,24.8,21.8,24.6z"/>
	<path class="st0" d="M59,43.4c0-0.2,0.1-0.2,0.4-0.2c0.7,0,1.4-0.3,1.7-0.7l0.3-0.4v-6.9c0-6.5,0-6.9-0.2-7.2
		c-0.3-0.5-0.7-0.7-1.5-0.7c-0.7,0-0.7-0.1-0.7-0.3v-0.2h7.1h7.1v2.5v2.5h-0.2c-0.2,0-0.3-0.1-0.4-0.7c-0.3-1-0.5-1.5-1-2
		c-0.9-1-1.9-1.3-4.3-1.3h-1.7v3.4v3.4l0.6-0.1c1.5-0.1,2.5-1.2,2.8-3.2c0.1-0.8,0.1-0.8,0.4-0.8h0.3V35v4.4h-0.3
		c-0.3,0-0.3,0-0.5-0.9c-0.2-1-0.8-2.1-1.3-2.5c-0.4-0.3-1-0.5-1.6-0.5h-0.5l0,3.1l0,3.1l0.3,0.3c0.3,0.3,0.4,0.3,1.4,0.4
		c2,0.1,3.4-0.3,4.5-1.1c0.9-0.7,1.5-1.6,1.9-2.8c0.2-0.5,0.2-0.5,0.4-0.5c0.1,0,0.2,0.1,0.2,0.1c0,0.1-0.5,3.4-0.7,4.9l-0.1,0.3
		h-7.3C59.1,43.6,59,43.6,59,43.4z"/>
	<path class="st0" d="M74.6,43.3c0.1-0.3,0.2-0.3,0.5-0.3c0.7,0,1.4-0.3,1.8-0.7c0.5-0.6,0.8-1.3,1.3-3c0.2-0.8,0.5-1.7,0.6-1.9
		c0.1-0.2,0.5-1.6,0.9-3c1.6-5.5,2.1-7.3,2.2-7.5c0.1-0.1,0.2-0.6,0.2-1.1c0.2-1.4,0-1.8-1.3-2c-0.4-0.1-0.8-0.1-0.8-0.2
		c0,0,0-0.2,0-0.3l0.1-0.3l5.4,0.1c5.6,0.1,5.8,0.1,7.2,0.6c0.6,0.2,0.9,0.4,1.5,0.9c0.8,0.8,1.1,1.5,1.2,2.8
		c0.1,2.7-1.5,4.7-4.7,5.7c-0.4,0.1-0.8,0.2-0.8,0.3c0,0,0.1,0.3,0.2,0.7c0.1,0.4,0.5,1.6,0.8,2.7c1.8,6,1.8,6.1,3.4,6.3
		c0.5,0.1,0.5,0.1,0.6,0.4l0,0.3h-3.3h-3.3l-0.6-2c-0.3-1.1-0.8-2.6-1-3.4c-0.2-0.8-0.6-2.1-0.9-3l-0.5-1.5l-0.5,0l-0.5,0l-0.2,0.6
		c-0.1,0.3-0.2,0.9-0.4,1.2c-0.1,0.3-0.3,1.1-0.5,1.8c-0.2,0.6-0.5,1.7-0.7,2.3c-0.5,1.7-0.6,2.3-0.4,2.8c0.2,0.5,0.6,0.7,1.6,0.8
		c0.8,0.1,0.8,0.1,0.7,0.5c-0.1,0.2-0.3,0.2-5.1,0.2h-5L74.6,43.3z M87.1,32.4c0.8-0.2,1.2-0.5,1.9-1.1c0.6-0.5,1.1-1.4,1.4-2.2
		c0.2-0.8,0.3-2.4,0.1-3.1c-0.3-1.2-1.3-1.8-2.7-1.8c-0.4,0-0.5,0-0.6,0.2c0,0.1-0.4,1.3-0.8,2.6c-0.4,1.4-0.9,3.1-1.1,3.9
		c-0.5,1.6-0.5,1.6-0.2,1.7C85.3,32.7,86.4,32.6,87.1,32.4z"/>
	<path class="st0" d="M96.5,43.4c0-0.2,0.2-0.3,0.5-0.4c0.9-0.3,1.3-0.8,2-2.3c0.4-0.8,0.9-2,1.2-2.7c0.3-0.7,0.8-1.9,1.1-2.6
		c0.3-0.7,0.6-1.2,0.6-1.3c0,0,0.2-0.6,0.6-1.3c1.1-2.4,2-4.4,2.4-5.4c0.5-1.1,0.7-1.3,0.9-0.7c0.1,0.2,0.3,0.6,0.4,1
		c0.2,0.4,0.6,1.2,0.9,2c0.3,0.7,0.9,2.1,1.3,3c0.4,1,1,2.3,1.3,2.9c0.3,0.6,0.6,1.4,0.8,1.7c0.1,0.3,0.5,1.2,0.9,2
		c0.6,1.4,1.1,2.4,1.6,3.1c0.1,0.2,0.4,0.4,0.8,0.5c0.5,0.2,0.6,0.3,0.6,0.4c0,0.2-0.2,0.2-4.1,0.2c-3.9,0-4.1,0-4.1-0.2
		c0-0.2,0.1-0.2,0.6-0.2c0.3,0,0.7-0.1,1-0.2c0.6-0.3,0.6-0.6,0-2.1c-0.3-0.7-0.6-1.4-0.7-1.6l-0.2-0.4h-2.9h-2.9l-0.4,1
		c-0.6,1.4-0.7,1.9-0.5,2.3c0.1,0.4,0.6,0.8,0.9,0.8c0.1,0,0.4,0.1,0.7,0.1c0.4,0.1,0.5,0.2,0.5,0.3c0,0.2-0.1,0.2-2.8,0.2
		C96.4,43.6,96.4,43.6,96.5,43.4z M106.3,37.8c0-0.1-0.2-0.5-0.4-0.9c-0.2-0.4-0.4-1-0.6-1.4c-0.2-0.4-0.5-1.2-0.8-1.9
		c-0.3-0.6-0.5-1.2-0.6-1.3c-0.1-0.1-0.4,0.5-1.2,2.5c-0.3,0.6-0.7,1.6-0.9,2c-0.2,0.5-0.4,0.9-0.4,0.9c0,0,1.1,0,2.5,0
		C105.8,37.9,106.3,37.9,106.3,37.8z"/>
</g>
</svg>
