<?xml version="1.0" encoding="utf-8"?>
<!-- Generator: Adobe Illustrator 24.1.2, SVG Export Plug-In . SVG Version: 6.00 Build 0)  -->
<svg version="1.1" id="Layer_1" xmlns="http://www.w3.org/2000/svg" xmlns:xlink="http://www.w3.org/1999/xlink" x="0px" y="0px"
	 viewBox="0 0 798.8 246.9" style="enable-background:new 0 0 798.8 246.9;" xml:space="preserve">
<style type="text/css">
	.st0{fill:#63C0BE;}
	.st1{clip-path:url(#SVGID_2_);}
	.st2{fill:none;stroke:#63C0BE;stroke-miterlimit:10;}
	.st3{fill:#FFFFFF;}
	.st4{font-family:'ArialRoundedMTBold';}
	.st5{font-size:75.5px;}
	.st6{fill:none;stroke:#FFFFFF;stroke-width:4;stroke-miterlimit:10;}
	.st7{fill:#FCE567;}
	.st8{fill:#EC646C;}
	.st9{font-size:75.6847px;}
	.st10{fill:#21545E;}
	.st11{clip-path:url(#SVGID_6_);}
</style>
<rect x="-0.9" y="-2.1" class="st0" width="799" height="249"/>
<g>
	<defs>
		<rect id="SVGID_1_" x="-1.9" y="-3.1" width="800" height="250"/>
	</defs>
	<clipPath id="SVGID_2_">
		<use xlink:href="#SVGID_1_"  style="overflow:visible;"/>
	</clipPath>
	<g class="st1">
		<rect x="-0.9" y="-2.1" class="st2" width="800" height="250"/>
	</g>
</g>
<g>
	<defs>
		<rect id="SVGID_3_" x="-1.9" y="-3.1" width="800" height="250"/>
	</defs>
	<clipPath id="SVGID_4_">
		<use xlink:href="#SVGID_3_"  style="overflow:visible;"/>
	</clipPath>
</g>
<text transform="matrix(1 0 0 1 59.8103 186.9867)" class="st3 st4 st5">THUIS</text>
<polygon class="st6" points="768.5,226.6 21.7,208.2 27.8,17.2 774.6,35.5 "/>
<rect x="306.6" y="122" transform="matrix(0.9978 -6.644805e-02 6.644805e-02 0.9978 -10.0133 31.8729)" class="st7" width="335" height="89"/>
<text transform="matrix(0.9976 -6.982913e-02 6.982913e-02 0.9976 316.2903 201.6864)" class="st8 st4 st9">BESMET</text>
<text transform="matrix(0.9976 -6.982913e-02 6.982913e-02 0.9976 318.3602 204.4265)" class="st3 st4 st9">BESMET</text>
<text transform="matrix(1 0 0 1 626.9803 182.1467)" class="st8 st4 st5">.</text>
<text transform="matrix(1 0 0 1 628.7203 183.6567)" class="st3 st4 st5">.NL</text>
<text transform="matrix(1 0 0 1 78.7004 100.6066)" class="st10 st4 st5">OOST WEST</text>
<g>
	<defs>
		<rect id="SVGID_5_" x="-1.9" y="-3.1" width="800" height="250"/>
	</defs>
	<clipPath id="SVGID_6_">
		<use xlink:href="#SVGID_5_"  style="overflow:visible;"/>
	</clipPath>
	<g class="st11">
		<path class="st10" d="M131.1,73.1c0,13.1-10.1,23.8-22.7,23.8S85.7,86.2,85.7,73.1s10.2-23.8,22.8-23.8S131.1,60,131.1,73.1"/>
		<path class="st3" d="M108.4,77.4L108.4,77.4c-1,0-1.8-0.8-1.8-1.8V58.1c0-1,0.8-1.8,1.8-1.8s1.8,0.8,1.8,1.8v17.5
			C110.2,76.6,109.4,77.4,108.4,77.4"/>
		<path class="st3" d="M108.9,77.2L108.9,77.2c-0.7,0.4-1.6,0.1-2-0.6L94.8,54.1c-0.4-0.7-0.2-1.6,0.5-2.1c0.7-0.4,1.6-0.2,2.1,0.5
			c0,0,0,0.1,0.1,0.1l12.1,22.5C109.9,75.9,109.6,76.8,108.9,77.2"/>
	</g>
</g>
</svg>
